<svg id="Layer_1" data-name="Layer 1" xmlns="http://www.w3.org/2000/svg" viewBox="0 0 116 91"><defs><style>.cls-1{fill:#d26a28;}</style></defs><title>Artboard 1</title><polygon class="cls-1" points="70.44 8.84 59.74 8.84 34.72 8.84 34.72 30.23 59.74 30.23 70.44 30.23 81.13 30.23 81.13 8.84 70.44 8.84"/><polygon class="cls-1" points="8.75 8.84 8.75 23.88 8.75 30.23 8.75 56.13 30.14 56.13 30.14 30.23 30.14 23.88 30.14 8.84 8.75 8.84"/><rect class="cls-1" x="8.75" y="60.64" width="21.39" height="21.39"/><polygon class="cls-1" points="82.23 34.74 71.54 34.74 60.84 34.74 60.84 56.13 71.54 56.13 82.23 56.13 107.25 56.13 107.25 34.74 82.23 34.74"/><rect class="cls-1" x="85.71" y="60.71" width="21.39" height="21.39"/><polygon class="cls-1" points="56.11 60.77 45.41 60.77 34.72 60.77 34.72 82.16 45.41 82.16 56.11 82.16 81.13 82.16 81.13 60.77 56.11 60.77"/></svg>